<?xml version="1.0" encoding="UTF-8"?>
<svg id="Calque_2" data-name="Calque 2" xmlns="http://www.w3.org/2000/svg" viewBox="0 0 260.24 343.18">
  <g id="Calque_1-2" data-name="Calque 1">
    <path d="M130.08,343.15c-30.94,0-61.87,.05-92.81-.02-18.23-.04-32.44-11.07-36.38-27.93-1.77-7.59-.44-15.17,.03-22.73,1.52-24.39,3.26-48.77,4.9-73.16,1.93-28.74,3.84-57.48,5.77-86.22,.48-7.09,.64-14.22,1.54-21.26,2.42-18.98,16.6-31.6,35.74-32.14,2.87-.08,5.74,0,8.61-.03,5.31-.06,4.71,.59,4.69-4.88-.05-8.5,.22-16.94,2.57-25.2C73.7,17.9,102.34-1.95,136.13,.15c30.3,1.88,56.59,26.72,61.17,57.89,.89,6.06,.93,12.19,.69,18.3-.1,2.59,.66,3.45,3.33,3.39,5.97-.13,12-.48,17.89,.87,16.33,3.74,27.14,16.8,28.3,34.27,2.85,42.93,5.64,85.86,8.48,128.78,1.34,20.16,2.71,40.31,4.14,60.46,1.54,21.64-14.62,38.92-36.88,39.01-31.06,.13-62.12,.03-93.18,.03Zm.11-263.48c10.6,0,21.21,.09,31.81-.05,3.92-.05,9.1,1.83,11.44-.86,2.26-2.59,.71-7.65,.6-11.61-.6-20.43-14.2-37.39-33.61-42.09-19.03-4.61-38.71,4-48.57,21.16-5.25,9.14-5.91,19.1-5.81,29.31,.03,3.19,.69,4.27,4.1,4.22,13.34-.21,26.69-.09,40.04-.08Zm-.25,119.98c27.46-1.24,47.9-13.43,60.83-37.69,3.58-6.72,1.46-13.89-4.7-17.03-6.07-3.09-12.89-.71-16.39,5.82-8.51,15.87-21.6,24.66-39.72,24.61-17.97-.05-30.93-8.86-39.38-24.56-3.52-6.55-10.28-8.96-16.37-5.9-6.18,3.11-8.33,10.31-4.77,17,12.9,24.28,33.37,36.43,60.5,37.74Z"/>
  </g>
</svg>