<?xml version="1.0" encoding="UTF-8"?>
<svg id="Calque_2" data-name="Calque 2" xmlns="http://www.w3.org/2000/svg" viewBox="0 0 260.23 343.21">
  <g id="Calque_1-2" data-name="Calque 1">
    <g>
      <path d="M130.17,343.16c-30.94,0-61.87,.05-92.81-.02-18.28-.04-32.44-10.97-36.44-27.85-1.83-7.71-.45-15.41,.03-23.1,1.52-24.39,3.25-48.77,4.88-73.16,1.92-28.62,3.83-57.23,5.75-85.85,.48-7.09,.64-14.22,1.54-21.26,2.45-19.17,16.72-31.81,36.03-32.24,3.24-.07,6.5-.18,9.73,.03,2.63,.17,3.43-.72,3.36-3.35-.27-9.37,.08-18.68,2.74-27.79C74.01,17.65,103.11-2.11,136.41,.18c30.37,2.09,56.75,27.24,60.93,58.15,.79,5.82,.96,11.7,.63,17.55-.18,3.24,.98,3.97,4,3.86,5.72-.2,11.5-.44,17.15,.83,16.44,3.7,27.27,16.97,28.42,34.57,3.31,50.52,6.64,101.04,9.99,151.55,.83,12.57,1.78,25.13,2.61,37.69,1.42,21.36-14.59,38.58-36.42,38.71-31.18,.19-62.37,.05-93.55,.05Zm-.21-23.95c31.06,0,62.11,.02,93.17-.02,8.34-.01,13.61-5.35,13.09-13.3-1.72-26.5-3.52-53-5.29-79.5-2.43-36.33-4.9-72.65-7.26-108.98-.61-9.4-4.99-13.75-14.49-13.77-9.35-.03-18.7,0-28.04,0-43.4,0-86.8-.01-130.19,0-9.43,0-13.89,4.42-14.4,13.85-.51,9.34-1.16,18.67-1.79,28-1.89,28.36-3.81,56.73-5.71,85.09-1.62,24.26-2.94,48.54-5.01,72.77-.71,8.27,3.3,16.15,14.61,16,30.43-.4,60.86-.14,91.3-.14Zm.14-239.53c13.6,0,27.19-.05,40.79,.04,2.36,.02,3.41-.57,3.24-3.12-.2-3.11,.02-6.24-.08-9.35-.62-20.44-14.13-37.39-33.55-42.15-19-4.66-38.7,3.93-48.61,21.06-5.42,9.38-5.97,19.6-5.84,30.05,.04,2.86,.89,3.55,3.63,3.53,13.47-.13,26.94-.06,40.41-.06Z"/>
      <path d="M129.94,199.66c-27.13-1.31-47.61-13.45-60.51-37.73-3.56-6.7-1.41-13.89,4.76-17.01,6.08-3.07,12.85-.65,16.37,5.89,8.45,15.7,21.41,24.51,39.38,24.57,18.12,.06,31.22-8.74,39.73-24.6,3.5-6.53,10.32-8.92,16.39-5.84,6.16,3.13,8.29,10.31,4.71,17.03-12.92,24.26-33.37,36.45-60.82,37.69Z"/>
    </g>
  </g>
</svg>